<mxfile host="app.diagrams.net" modified="2024-02-29T12:01:07.842Z" agent="Mozilla/5.0 (Windows NT 10.0; Win64; x64) AppleWebKit/537.36 (KHTML, like Gecko) Chrome/121.0.0.0 Safari/537.36" etag="6mInfwFNl9kY_RdpVMuP" version="23.1.7" type="github">
  <diagram name="Page-1" id="2c0d36ab-eaac-3732-788b-9136903baeff">
    <mxGraphModel dx="1038" dy="542" grid="1" gridSize="10" guides="1" tooltips="1" connect="1" arrows="1" fold="1" page="1" pageScale="1.5" pageWidth="1169" pageHeight="827" background="none" math="1" shadow="0">
      <root>
        <mxCell id="0" />
        <mxCell id="1" parent="0" />
        <mxCell id="SzcbqSzcFT_Wy_OmHRQ2-264" value="" style="edgeStyle=elbowEdgeStyle;elbow=vertical;strokeWidth=2;rounded=0;entryX=0.5;entryY=0;entryDx=0;entryDy=0;" edge="1" parent="1" target="SzcbqSzcFT_Wy_OmHRQ2-275">
          <mxGeometry x="337" y="215.5" width="100" height="100" as="geometry">
            <mxPoint x="532" y="338" as="sourcePoint" />
            <mxPoint x="579" y="357.75" as="targetPoint" />
            <Array as="points" />
          </mxGeometry>
        </mxCell>
        <mxCell id="SzcbqSzcFT_Wy_OmHRQ2-265" value="" style="edgeStyle=elbowEdgeStyle;elbow=vertical;strokeWidth=2;rounded=0;entryX=0.528;entryY=0.015;entryDx=0;entryDy=0;entryPerimeter=0;" edge="1" parent="1" target="SzcbqSzcFT_Wy_OmHRQ2-294">
          <mxGeometry x="-23" y="135.5" width="100" height="100" as="geometry">
            <mxPoint x="532" y="338.5" as="sourcePoint" />
            <mxPoint x="389.5" y="360" as="targetPoint" />
            <Array as="points">
              <mxPoint x="482" y="346" />
            </Array>
          </mxGeometry>
        </mxCell>
        <mxCell id="SzcbqSzcFT_Wy_OmHRQ2-266" value="" style="edgeStyle=elbowEdgeStyle;elbow=vertical;strokeWidth=2;rounded=0;exitX=0.5;exitY=1;exitDx=0;exitDy=0;entryX=0.5;entryY=0;entryDx=0;entryDy=0;" edge="1" parent="1" target="SzcbqSzcFT_Wy_OmHRQ2-273">
          <mxGeometry x="-23" y="135.5" width="100" height="100" as="geometry">
            <mxPoint x="532" y="338.5" as="sourcePoint" />
            <mxPoint x="465" y="355.5" as="targetPoint" />
            <Array as="points">
              <mxPoint x="498" y="346" />
            </Array>
          </mxGeometry>
        </mxCell>
        <mxCell id="SzcbqSzcFT_Wy_OmHRQ2-267" value="" style="endArrow=classic;html=1;rounded=0;exitX=0.25;exitY=1;exitDx=0;exitDy=0;entryX=0.5;entryY=0;entryDx=0;entryDy=0;" edge="1" parent="1" source="SzcbqSzcFT_Wy_OmHRQ2-294" target="SzcbqSzcFT_Wy_OmHRQ2-272">
          <mxGeometry width="50" height="50" relative="1" as="geometry">
            <mxPoint x="379.75" y="380" as="sourcePoint" />
            <mxPoint x="310" y="400" as="targetPoint" />
            <Array as="points">
              <mxPoint x="378" y="386" />
              <mxPoint x="340" y="386" />
              <mxPoint x="290" y="386" />
            </Array>
          </mxGeometry>
        </mxCell>
        <mxCell id="SzcbqSzcFT_Wy_OmHRQ2-268" value="" style="endArrow=classic;html=1;rounded=0;entryX=0.5;entryY=0;entryDx=0;entryDy=0;exitX=0.25;exitY=1;exitDx=0;exitDy=0;" edge="1" parent="1" source="SzcbqSzcFT_Wy_OmHRQ2-294" target="SzcbqSzcFT_Wy_OmHRQ2-271">
          <mxGeometry width="50" height="50" relative="1" as="geometry">
            <mxPoint x="379.75" y="380" as="sourcePoint" />
            <mxPoint x="356.5" y="400" as="targetPoint" />
            <Array as="points">
              <mxPoint x="378" y="386" />
              <mxPoint x="322" y="386" />
            </Array>
          </mxGeometry>
        </mxCell>
        <mxCell id="SzcbqSzcFT_Wy_OmHRQ2-269" style="edgeStyle=orthogonalEdgeStyle;rounded=0;orthogonalLoop=1;jettySize=auto;html=1;exitX=0.5;exitY=1;exitDx=0;exitDy=0;" edge="1" parent="1">
          <mxGeometry relative="1" as="geometry">
            <mxPoint x="394.86" y="380" as="sourcePoint" />
            <mxPoint x="394.86" y="380" as="targetPoint" />
          </mxGeometry>
        </mxCell>
        <mxCell id="SzcbqSzcFT_Wy_OmHRQ2-270" value="" style="endArrow=none;dashed=1;html=1;dashPattern=1 3;strokeWidth=2;rounded=0;fontSize=9;spacing=1;" edge="1" parent="1">
          <mxGeometry width="50" height="50" relative="1" as="geometry">
            <mxPoint x="336" y="410" as="sourcePoint" />
            <mxPoint x="358" y="410" as="targetPoint" />
          </mxGeometry>
        </mxCell>
        <mxCell id="SzcbqSzcFT_Wy_OmHRQ2-271" value="&lt;font style=&quot;font-size: 6px;&quot;&gt;$$\theta_n=0.5^{\circ}$$&lt;/font&gt;" style="rounded=1;whiteSpace=wrap;html=1;fontSize=6;" vertex="1" parent="1">
          <mxGeometry x="300" y="400" width="34" height="18" as="geometry" />
        </mxCell>
        <mxCell id="SzcbqSzcFT_Wy_OmHRQ2-272" value="$$\theta_n=0^{\circ}&lt;br style=&quot;font-size: 6px;&quot;&gt;$$" style="rounded=1;whiteSpace=wrap;html=1;fontSize=6;" vertex="1" parent="1">
          <mxGeometry x="270" y="400" width="28" height="18" as="geometry" />
        </mxCell>
        <mxCell id="SzcbqSzcFT_Wy_OmHRQ2-273" value="$$t_{z2}=0.5$$" style="rounded=1;whiteSpace=wrap;html=1;fontSize=7;" vertex="1" parent="1">
          <mxGeometry x="440" y="360" width="39" height="20" as="geometry" />
        </mxCell>
        <mxCell id="SzcbqSzcFT_Wy_OmHRQ2-274" value="" style="endArrow=none;dashed=1;html=1;dashPattern=1 3;strokeWidth=2;rounded=0;fontSize=9;spacing=1;" edge="1" parent="1">
          <mxGeometry width="50" height="50" relative="1" as="geometry">
            <mxPoint x="485" y="371" as="sourcePoint" />
            <mxPoint x="507" y="371" as="targetPoint" />
          </mxGeometry>
        </mxCell>
        <mxCell id="SzcbqSzcFT_Wy_OmHRQ2-275" value="$$t_{z2}=130$$" style="rounded=1;whiteSpace=wrap;html=1;fontSize=7;" vertex="1" parent="1">
          <mxGeometry x="512.5" y="360" width="39" height="20" as="geometry" />
        </mxCell>
        <mxCell id="SzcbqSzcFT_Wy_OmHRQ2-276" value="$$t_{z1}=0$$" style="rounded=1;whiteSpace=wrap;html=1;fontSize=7;" vertex="1" parent="1">
          <mxGeometry x="512.5" y="322" width="39" height="20" as="geometry" />
        </mxCell>
        <mxCell id="SzcbqSzcFT_Wy_OmHRQ2-277" value="" style="endArrow=classic;html=1;rounded=0;exitX=0.25;exitY=1;exitDx=0;exitDy=0;entryX=0.5;entryY=0;entryDx=0;entryDy=0;" edge="1" parent="1" source="SzcbqSzcFT_Wy_OmHRQ2-294" target="SzcbqSzcFT_Wy_OmHRQ2-286">
          <mxGeometry width="50" height="50" relative="1" as="geometry">
            <mxPoint x="379.75" y="380" as="sourcePoint" />
            <mxPoint x="371" y="400.0000000000001" as="targetPoint" />
            <Array as="points">
              <mxPoint x="378" y="386" />
            </Array>
          </mxGeometry>
        </mxCell>
        <mxCell id="SzcbqSzcFT_Wy_OmHRQ2-278" value="" style="endArrow=classic;html=1;rounded=0;exitX=0.5;exitY=1;exitDx=0;exitDy=0;entryX=0.5;entryY=0;entryDx=0;entryDy=0;" edge="1" parent="1" target="SzcbqSzcFT_Wy_OmHRQ2-284">
          <mxGeometry width="50" height="50" relative="1" as="geometry">
            <mxPoint x="449.36" y="379.9999999999999" as="sourcePoint" />
            <mxPoint x="431.86" y="400" as="targetPoint" />
            <Array as="points">
              <mxPoint x="447.86" y="386" />
              <mxPoint x="411.86" y="386" />
            </Array>
          </mxGeometry>
        </mxCell>
        <mxCell id="SzcbqSzcFT_Wy_OmHRQ2-279" value="" style="endArrow=classic;html=1;rounded=0;entryX=0.5;entryY=0;entryDx=0;entryDy=0;exitX=0.5;exitY=1;exitDx=0;exitDy=0;" edge="1" parent="1" target="SzcbqSzcFT_Wy_OmHRQ2-283">
          <mxGeometry width="50" height="50" relative="1" as="geometry">
            <mxPoint x="449.36" y="379.9999999999999" as="sourcePoint" />
            <mxPoint x="478.36" y="400" as="targetPoint" />
            <Array as="points">
              <mxPoint x="447.86" y="386" />
              <mxPoint x="443.86" y="386" />
            </Array>
          </mxGeometry>
        </mxCell>
        <mxCell id="SzcbqSzcFT_Wy_OmHRQ2-280" style="edgeStyle=orthogonalEdgeStyle;rounded=0;orthogonalLoop=1;jettySize=auto;html=1;exitX=0.5;exitY=1;exitDx=0;exitDy=0;" edge="1" parent="1">
          <mxGeometry relative="1" as="geometry">
            <mxPoint x="526.86" y="380" as="sourcePoint" />
            <mxPoint x="526.86" y="380" as="targetPoint" />
          </mxGeometry>
        </mxCell>
        <mxCell id="SzcbqSzcFT_Wy_OmHRQ2-281" value="" style="endArrow=none;dashed=1;html=1;dashPattern=1 3;strokeWidth=2;rounded=0;fontSize=9;spacing=1;" edge="1" parent="1">
          <mxGeometry width="50" height="50" relative="1" as="geometry">
            <mxPoint x="461.86" y="410" as="sourcePoint" />
            <mxPoint x="483.86" y="410" as="targetPoint" />
          </mxGeometry>
        </mxCell>
        <mxCell id="SzcbqSzcFT_Wy_OmHRQ2-282" value="$$\theta_n=\pi$$" style="rounded=1;whiteSpace=wrap;html=1;fontSize=6;" vertex="1" parent="1">
          <mxGeometry x="481.86" y="400" width="24.14" height="18" as="geometry" />
        </mxCell>
        <mxCell id="SzcbqSzcFT_Wy_OmHRQ2-283" value="&lt;font style=&quot;font-size: 6px;&quot;&gt;$$\theta_n=0.5^{\circ}$$&lt;/font&gt;" style="rounded=1;whiteSpace=wrap;html=1;fontSize=6;" vertex="1" parent="1">
          <mxGeometry x="425.86" y="400" width="34" height="18" as="geometry" />
        </mxCell>
        <mxCell id="SzcbqSzcFT_Wy_OmHRQ2-284" value="$$\theta_n=0^{\circ}&lt;br style=&quot;font-size: 6px;&quot;&gt;$$" style="rounded=1;whiteSpace=wrap;html=1;fontSize=6;" vertex="1" parent="1">
          <mxGeometry x="391.86" y="400" width="32" height="18" as="geometry" />
        </mxCell>
        <mxCell id="SzcbqSzcFT_Wy_OmHRQ2-285" value="" style="endArrow=classic;html=1;rounded=0;exitX=0.5;exitY=1;exitDx=0;exitDy=0;entryX=0.5;entryY=0;entryDx=0;entryDy=0;" edge="1" parent="1" target="SzcbqSzcFT_Wy_OmHRQ2-282">
          <mxGeometry width="50" height="50" relative="1" as="geometry">
            <mxPoint x="449.36" y="379.9999999999999" as="sourcePoint" />
            <mxPoint x="529.86" y="400" as="targetPoint" />
            <Array as="points">
              <mxPoint x="447.86" y="386" />
              <mxPoint x="490" y="386" />
            </Array>
          </mxGeometry>
        </mxCell>
        <mxCell id="SzcbqSzcFT_Wy_OmHRQ2-286" value="$$\theta_n=\pi$$" style="rounded=1;whiteSpace=wrap;html=1;fontSize=6;" vertex="1" parent="1">
          <mxGeometry x="356" y="401" width="24.14" height="18" as="geometry" />
        </mxCell>
        <mxCell id="SzcbqSzcFT_Wy_OmHRQ2-287" value="" style="endArrow=classic;html=1;rounded=0;entryX=0.5;entryY=0;entryDx=0;entryDy=0;exitX=0.5;exitY=1;exitDx=0;exitDy=0;" edge="1" parent="1" source="SzcbqSzcFT_Wy_OmHRQ2-275" target="SzcbqSzcFT_Wy_OmHRQ2-292">
          <mxGeometry width="50" height="50" relative="1" as="geometry">
            <mxPoint x="578" y="386" as="sourcePoint" />
            <mxPoint x="562" y="401" as="targetPoint" />
            <Array as="points">
              <mxPoint x="538" y="387" />
            </Array>
          </mxGeometry>
        </mxCell>
        <mxCell id="SzcbqSzcFT_Wy_OmHRQ2-288" value="" style="endArrow=classic;html=1;rounded=0;entryX=0.5;entryY=0;entryDx=0;entryDy=0;exitX=0.5;exitY=1;exitDx=0;exitDy=0;" edge="1" parent="1" source="SzcbqSzcFT_Wy_OmHRQ2-275" target="SzcbqSzcFT_Wy_OmHRQ2-291">
          <mxGeometry width="50" height="50" relative="1" as="geometry">
            <mxPoint x="579.5" y="380.9999999999999" as="sourcePoint" />
            <mxPoint x="608.5" y="401" as="targetPoint" />
            <Array as="points">
              <mxPoint x="538" y="387" />
              <mxPoint x="574" y="387" />
            </Array>
          </mxGeometry>
        </mxCell>
        <mxCell id="SzcbqSzcFT_Wy_OmHRQ2-289" value="" style="endArrow=none;dashed=1;html=1;dashPattern=1 3;strokeWidth=2;rounded=0;fontSize=9;spacing=1;" edge="1" parent="1">
          <mxGeometry width="50" height="50" relative="1" as="geometry">
            <mxPoint x="592" y="411" as="sourcePoint" />
            <mxPoint x="614" y="411" as="targetPoint" />
          </mxGeometry>
        </mxCell>
        <mxCell id="SzcbqSzcFT_Wy_OmHRQ2-290" value="$$\theta_n=\pi$$" style="rounded=1;whiteSpace=wrap;html=1;fontSize=6;" vertex="1" parent="1">
          <mxGeometry x="612" y="401" width="24.14" height="18" as="geometry" />
        </mxCell>
        <mxCell id="SzcbqSzcFT_Wy_OmHRQ2-291" value="&lt;font style=&quot;font-size: 6px;&quot;&gt;$$\theta_n=0.5^{\circ}$$&lt;/font&gt;" style="rounded=1;whiteSpace=wrap;html=1;fontSize=6;" vertex="1" parent="1">
          <mxGeometry x="556" y="401" width="34" height="18" as="geometry" />
        </mxCell>
        <mxCell id="SzcbqSzcFT_Wy_OmHRQ2-292" value="$$\theta_n=0^{\circ}&lt;br style=&quot;font-size: 6px;&quot;&gt;$$" style="rounded=1;whiteSpace=wrap;html=1;fontSize=6;" vertex="1" parent="1">
          <mxGeometry x="522" y="401" width="32" height="18" as="geometry" />
        </mxCell>
        <mxCell id="SzcbqSzcFT_Wy_OmHRQ2-293" value="" style="endArrow=classic;html=1;rounded=0;entryX=0.5;entryY=0;entryDx=0;entryDy=0;exitX=0.5;exitY=1;exitDx=0;exitDy=0;" edge="1" parent="1" source="SzcbqSzcFT_Wy_OmHRQ2-275" target="SzcbqSzcFT_Wy_OmHRQ2-290">
          <mxGeometry width="50" height="50" relative="1" as="geometry">
            <mxPoint x="580" y="386" as="sourcePoint" />
            <mxPoint x="660" y="401" as="targetPoint" />
            <Array as="points">
              <mxPoint x="538" y="387" />
              <mxPoint x="578" y="387" />
              <mxPoint x="618" y="387" />
            </Array>
          </mxGeometry>
        </mxCell>
        <mxCell id="SzcbqSzcFT_Wy_OmHRQ2-294" value="$$t_{z2}=0$$" style="rounded=1;whiteSpace=wrap;html=1;fontSize=7;" vertex="1" parent="1">
          <mxGeometry x="369" y="360" width="39" height="20" as="geometry" />
        </mxCell>
        <mxCell id="SzcbqSzcFT_Wy_OmHRQ2-295" value="$$\theta_{n&#39;}&lt;br style=&quot;font-size: 6px;&quot;&gt;$$" style="rounded=1;whiteSpace=wrap;html=1;fontSize=6;" vertex="1" parent="1">
          <mxGeometry x="268" y="430" width="32" height="18" as="geometry" />
        </mxCell>
        <mxCell id="SzcbqSzcFT_Wy_OmHRQ2-296" value="" style="endArrow=classic;html=1;rounded=0;entryX=0.5;entryY=0;entryDx=0;entryDy=0;exitX=0.5;exitY=1;exitDx=0;exitDy=0;curved=1;strokeColor=#2B2BFF;" edge="1" parent="1" source="SzcbqSzcFT_Wy_OmHRQ2-272" target="SzcbqSzcFT_Wy_OmHRQ2-295">
          <mxGeometry width="50" height="50" relative="1" as="geometry">
            <mxPoint x="284" y="419" as="sourcePoint" />
            <mxPoint x="334" y="369" as="targetPoint" />
          </mxGeometry>
        </mxCell>
        <mxCell id="SzcbqSzcFT_Wy_OmHRQ2-297" value="$$\theta_{n&#39;}&lt;br style=&quot;font-size: 6px;&quot;&gt;$$" style="rounded=1;whiteSpace=wrap;html=1;fontSize=6;" vertex="1" parent="1">
          <mxGeometry x="302" y="430" width="32" height="18" as="geometry" />
        </mxCell>
        <mxCell id="SzcbqSzcFT_Wy_OmHRQ2-298" value="" style="endArrow=classic;html=1;rounded=0;entryX=0.5;entryY=0;entryDx=0;entryDy=0;exitX=0.5;exitY=1;exitDx=0;exitDy=0;strokeColor=#2B2BFF;" edge="1" parent="1" target="SzcbqSzcFT_Wy_OmHRQ2-297">
          <mxGeometry width="50" height="50" relative="1" as="geometry">
            <mxPoint x="318" y="418" as="sourcePoint" />
            <mxPoint x="368" y="369" as="targetPoint" />
          </mxGeometry>
        </mxCell>
        <mxCell id="SzcbqSzcFT_Wy_OmHRQ2-299" value="$$\theta_{n&#39;}&lt;br style=&quot;font-size: 6px;&quot;&gt;$$" style="rounded=1;whiteSpace=wrap;html=1;fontSize=6;" vertex="1" parent="1">
          <mxGeometry x="352.07" y="431" width="32" height="18" as="geometry" />
        </mxCell>
        <mxCell id="SzcbqSzcFT_Wy_OmHRQ2-300" value="" style="endArrow=classic;html=1;rounded=0;entryX=0.5;entryY=0;entryDx=0;entryDy=0;exitX=0.5;exitY=1;exitDx=0;exitDy=0;strokeColor=#3333FF;" edge="1" parent="1" target="SzcbqSzcFT_Wy_OmHRQ2-299">
          <mxGeometry width="50" height="50" relative="1" as="geometry">
            <mxPoint x="368.07" y="419" as="sourcePoint" />
            <mxPoint x="418.07" y="370" as="targetPoint" />
          </mxGeometry>
        </mxCell>
        <mxCell id="SzcbqSzcFT_Wy_OmHRQ2-301" value="$$\theta_{n&#39;}&lt;br style=&quot;font-size: 6px;&quot;&gt;$$" style="rounded=1;whiteSpace=wrap;html=1;fontSize=6;" vertex="1" parent="1">
          <mxGeometry x="391.86" y="431" width="32" height="18" as="geometry" />
        </mxCell>
        <mxCell id="SzcbqSzcFT_Wy_OmHRQ2-302" value="" style="endArrow=classic;html=1;rounded=0;entryX=0.5;entryY=0;entryDx=0;entryDy=0;exitX=0.5;exitY=1;exitDx=0;exitDy=0;strokeColor=#2B2BFF;" edge="1" parent="1" target="SzcbqSzcFT_Wy_OmHRQ2-301">
          <mxGeometry width="50" height="50" relative="1" as="geometry">
            <mxPoint x="407.86" y="418" as="sourcePoint" />
            <mxPoint x="457.86" y="369" as="targetPoint" />
          </mxGeometry>
        </mxCell>
        <mxCell id="SzcbqSzcFT_Wy_OmHRQ2-303" value="$$\theta_{n&#39;}&lt;br style=&quot;font-size: 6px;&quot;&gt;$$" style="rounded=1;whiteSpace=wrap;html=1;fontSize=6;" vertex="1" parent="1">
          <mxGeometry x="426.86" y="431" width="32" height="18" as="geometry" />
        </mxCell>
        <mxCell id="SzcbqSzcFT_Wy_OmHRQ2-304" value="" style="endArrow=classic;html=1;rounded=0;entryX=0.5;entryY=0;entryDx=0;entryDy=0;exitX=0.5;exitY=1;exitDx=0;exitDy=0;strokeColor=#3333FF;" edge="1" parent="1" source="SzcbqSzcFT_Wy_OmHRQ2-283" target="SzcbqSzcFT_Wy_OmHRQ2-303">
          <mxGeometry width="50" height="50" relative="1" as="geometry">
            <mxPoint x="443.86" y="419" as="sourcePoint" />
            <mxPoint x="493.86" y="370" as="targetPoint" />
          </mxGeometry>
        </mxCell>
        <mxCell id="SzcbqSzcFT_Wy_OmHRQ2-305" value="$$\theta_{n&#39;}&lt;br style=&quot;font-size: 6px;&quot;&gt;$$" style="rounded=1;whiteSpace=wrap;html=1;fontSize=6;" vertex="1" parent="1">
          <mxGeometry x="477.93" y="430" width="32" height="18" as="geometry" />
        </mxCell>
        <mxCell id="SzcbqSzcFT_Wy_OmHRQ2-306" value="" style="endArrow=classic;html=1;rounded=0;entryX=0.5;entryY=0;entryDx=0;entryDy=0;exitX=0.5;exitY=1;exitDx=0;exitDy=0;strokeColor=#2B2BFF;" edge="1" parent="1" target="SzcbqSzcFT_Wy_OmHRQ2-305">
          <mxGeometry width="50" height="50" relative="1" as="geometry">
            <mxPoint x="493.93" y="418" as="sourcePoint" />
            <mxPoint x="543.9300000000001" y="369" as="targetPoint" />
          </mxGeometry>
        </mxCell>
        <mxCell id="SzcbqSzcFT_Wy_OmHRQ2-307" value="$$\theta_{n&#39;}&lt;br style=&quot;font-size: 6px;&quot;&gt;$$" style="rounded=1;whiteSpace=wrap;html=1;fontSize=6;" vertex="1" parent="1">
          <mxGeometry x="522" y="431" width="32" height="18" as="geometry" />
        </mxCell>
        <mxCell id="SzcbqSzcFT_Wy_OmHRQ2-308" value="" style="endArrow=classic;html=1;rounded=0;entryX=0.5;entryY=0;entryDx=0;entryDy=0;exitX=0.5;exitY=1;exitDx=0;exitDy=0;strokeColor=#3333FF;" edge="1" parent="1" target="SzcbqSzcFT_Wy_OmHRQ2-307">
          <mxGeometry width="50" height="50" relative="1" as="geometry">
            <mxPoint x="538" y="419" as="sourcePoint" />
            <mxPoint x="588" y="370" as="targetPoint" />
          </mxGeometry>
        </mxCell>
        <mxCell id="SzcbqSzcFT_Wy_OmHRQ2-309" value="$$\theta_{n&#39;}&lt;br style=&quot;font-size: 6px;&quot;&gt;$$" style="rounded=1;whiteSpace=wrap;html=1;fontSize=6;" vertex="1" parent="1">
          <mxGeometry x="558" y="431" width="32" height="18" as="geometry" />
        </mxCell>
        <mxCell id="SzcbqSzcFT_Wy_OmHRQ2-310" value="" style="endArrow=classic;html=1;rounded=0;entryX=0.5;entryY=0;entryDx=0;entryDy=0;exitX=0.5;exitY=1;exitDx=0;exitDy=0;strokeColor=#2B2BFF;" edge="1" parent="1" target="SzcbqSzcFT_Wy_OmHRQ2-309">
          <mxGeometry width="50" height="50" relative="1" as="geometry">
            <mxPoint x="574" y="419" as="sourcePoint" />
            <mxPoint x="624" y="370" as="targetPoint" />
          </mxGeometry>
        </mxCell>
        <mxCell id="SzcbqSzcFT_Wy_OmHRQ2-311" value="$$\theta_{n&#39;}&lt;br style=&quot;font-size: 6px;&quot;&gt;$$" style="rounded=1;whiteSpace=wrap;html=1;fontSize=6;" vertex="1" parent="1">
          <mxGeometry x="608.0699999999999" y="431" width="32" height="18" as="geometry" />
        </mxCell>
        <mxCell id="SzcbqSzcFT_Wy_OmHRQ2-312" value="" style="endArrow=classic;html=1;rounded=0;entryX=0.5;entryY=0;entryDx=0;entryDy=0;exitX=0.5;exitY=1;exitDx=0;exitDy=0;strokeColor=#3333FF;" edge="1" parent="1" target="SzcbqSzcFT_Wy_OmHRQ2-311">
          <mxGeometry width="50" height="50" relative="1" as="geometry">
            <mxPoint x="624.0699999999999" y="419" as="sourcePoint" />
            <mxPoint x="674.0699999999999" y="370" as="targetPoint" />
          </mxGeometry>
        </mxCell>
      </root>
    </mxGraphModel>
  </diagram>
</mxfile>
